<svg width="96" height="96" viewBox="0 0 96 96" fill="none" xmlns="http://www.w3.org/2000/svg">
<rect width="96" height="96" rx="48" fill="#001B51"/>
<path d="M66.8596 63.5502L58.0387 54.7293C60.1624 51.9022 61.3089 48.4609 61.3049 44.9249C61.3049 35.893 53.9568 28.5449 44.9249 28.5449C35.893 28.5449 28.5449 35.893 28.5449 44.9249C28.5449 53.9568 35.893 61.3049 44.9249 61.3049C48.4609 61.3089 51.9022 60.1624 54.7293 58.0387L63.5502 66.8596C63.9968 67.2588 64.5791 67.4718 65.1778 67.4551C65.7765 67.4383 66.346 67.193 66.7695 66.7695C67.193 66.346 67.4383 65.7765 67.4551 65.1778C67.4718 64.5791 67.2588 63.9968 66.8596 63.5502ZM33.2249 44.9249C33.2249 42.6109 33.9111 40.3488 35.1967 38.4248C36.4823 36.5007 38.3096 35.0011 40.4475 34.1155C42.5854 33.23 44.9379 32.9983 47.2075 33.4497C49.4771 33.9012 51.5618 35.0155 53.1981 36.6518C54.8343 38.288 55.9487 40.3728 56.4001 42.6424C56.8516 44.9119 56.6199 47.2644 55.7343 49.4023C54.8488 51.5402 53.3492 53.3675 51.4251 54.6531C49.501 55.9387 47.239 56.6249 44.9249 56.6249C41.823 56.6212 38.8493 55.3873 36.6559 53.194C34.4625 51.0006 33.2286 48.0268 33.2249 44.9249Z" fill="#E4EDFF"/>
</svg>
